<?xml version="1.0" encoding="UTF-8" standalone="no"?>
<!-- Created with Inkscape (http://www.inkscape.org/) -->

<svg
   xmlns:dc="http://purl.org/dc/elements/1.1/"
   xmlns:cc="http://creativecommons.org/ns#"
   xmlns:rdf="http://www.w3.org/1999/02/22-rdf-syntax-ns#"
   xmlns:svg="http://www.w3.org/2000/svg"
   xmlns="http://www.w3.org/2000/svg"
   xmlns:xlink="http://www.w3.org/1999/xlink"
   xmlns:sodipodi="http://sodipodi.sourceforge.net/DTD/sodipodi-0.dtd"
   xmlns:inkscape="http://www.inkscape.org/namespaces/inkscape"
   width="420"
   height="31"
   id="svg2"
   version="1.1"
   inkscape:version="0.48.3.1 r9886"
   sodipodi:docname="header.svg"
   inkscape:export-filename="/home/glic3rinu/confine-controller/controller/projects/vct/static/header.png"
   inkscape:export-xdpi="90"
   inkscape:export-ydpi="90">
  <defs
     id="defs4">
    <linearGradient
       x1="0"
       y1="0"
       x2="1"
       y2="0"
       gradientUnits="userSpaceOnUse"
       gradientTransform="matrix(168.98854,168.98854,168.98854,-168.98854,349.09961,209.33105)"
       spreadMethod="pad"
       id="linearGradient3955">
      <stop
         style="stop-opacity:1;stop-color:#47b754"
         offset="0"
         id="stop3957" />
      <stop
         style="stop-opacity:1;stop-color:#d8e037"
         offset="1"
         id="stop3959" />
    </linearGradient>
    <clipPath
       clipPathUnits="userSpaceOnUse"
       id="clipPath3947">
      <path
         d="m 469.867,371.425 c -0.25,-1.418 -0.383,-2.876 -0.383,-4.364 l 0,0 c 0,0 2.021,-16.608 -7.708,-24.797 l 0,0 c -9.711,-8.172 -29.435,-6.144 -29.435,-6.144 l 0,0 c -9.789,0 -18.517,-4.542 -24.197,-11.628 l 0,0 c 0.003,-0.002 -29.189,-14.312 -51.272,-14.312 l 0,0 c -25.496,0 -45.945,5.249 -45.944,5.249 l 0,0 c -3.911,8.549 -12.541,14.489 -22.556,14.489 l 0,0 c -13.695,0 -24.797,-11.1 -24.797,-24.793 l 0,0 c 0,-13.697 11.102,-24.792 24.797,-24.792 l 0,0 c 9.968,0 18.563,5.876 22.501,14.359 l 0,0 c 0,0 20.929,8.126 45.999,8.126 l 0,0 c 28.682,0 49.379,-14.876 49.96,-15.298 l 0,0 c 5.591,-8.087 14.931,-13.385 25.509,-13.385 l 0,0 c 0.701,0 1.401,0.023 2.09,0.069 l 0,0 0.735,0.068 c 0,0 19.647,0.878 28.172,-8.778 l 0,0 c 9.359,-10.604 6.971,-33.929 6.971,-33.929 l 0,0 c -0.077,-0.967 -0.116,-1.946 -0.116,-2.928 l 0,0 c 0,-20.544 16.654,-37.193 37.195,-37.193 l 0,0 c 20.543,0 37.196,16.649 37.196,37.193 l 0,0 c 0,20.535 -16.653,37.18 -37.196,37.18 l 0,0 c -4.765,0 -9.32,-0.895 -13.509,-2.527 l 0,0 c -6.852,0 -20.735,1.785 -26.055,6.408 l 0,0 c -8.796,7.646 -6.103,25.549 -6.103,25.549 l 0,0 0.003,-0.004 c 1.046,3.105 1.614,6.426 1.614,9.882 l 0,0 c 0,2.334 -0.256,4.605 -0.744,6.79 l 0,0 c -0.518,2.746 -3.119,18.313 2.864,25.609 l 0,0 c 8.387,10.23 21.583,5.695 28.826,4.74 l 0,0 c 13.573,-1.79 24.79,11.103 24.79,24.797 l 0,0 c 0,13.695 -11.097,24.795 -24.79,24.795 l 0,0 c -12.207,0 -22.353,-8.817 -24.417,-20.431 m -7.191,-59.927 0,-10e-4 c 0,0 0,0 0,10e-4"
         id="path3949"
         inkscape:connector-curvature="0" />
    </clipPath>
    <linearGradient
       x1="0"
       y1="0"
       x2="1"
       y2="0"
       gradientUnits="userSpaceOnUse"
       gradientTransform="matrix(-133.60844,-115.5714,-115.5714,133.60844,452.78516,414.26855)"
       spreadMethod="pad"
       id="linearGradient3935">
      <stop
         style="stop-opacity:1;stop-color:#f1623b"
         offset="0"
         id="stop3937" />
      <stop
         style="stop-opacity:1;stop-color:#fcb24c"
         offset="1"
         id="stop3939" />
    </linearGradient>
    <clipPath
       clipPathUnits="userSpaceOnUse"
       id="clipPath3927">
      <path
         d="m 421.468,407.869 c 0,-1.506 0.211,-2.964 0.606,-4.344 l 0,0 0.111,0.351 c 0,0 -4.257,-15.118 -14.038,-22.973 l 0,0 c -10.835,-8.695 -23.869,-16.298 -23.869,-16.298 l 0,0 0.069,0.116 c -3.936,2.622 -8.658,4.153 -13.741,4.153 l 0,0 c -4.117,0 -8.002,-1.004 -11.421,-2.781 l 0,0 c 0,0 -8.407,-0.714 -12.334,2.781 l 0,0 c -4.14,3.684 -4.454,14.548 -4.454,15.873 l 0,0 c 0,8.761 -7.105,15.866 -15.869,15.866 l 0,0 c -8.765,0 -15.87,-7.105 -15.87,-15.866 l 0,0 c 0,-8.766 7.105,-15.873 15.87,-15.873 l 0,0 c 0.706,0 1.399,0.045 2.075,0.136 l 0,0 c 0,0 12.983,0.717 17.207,-2.826 l 0,0 c 4.275,-3.588 2.293,-11.636 2.293,-11.636 l 0,0 0.011,-0.007 c -1.48,-3.181 -2.304,-6.727 -2.304,-10.462 l 0,0 c 0,-11.327 7.596,-20.88 17.971,-23.847 l 0,0 -0.011,0.069 c 0,0 5.364,-8.712 5.836,-21.247 l 0,0 c 0.393,-10.51 -4.814,-20.803 -4.811,-20.799 l 0,0 c -5.893,-2.32 -10.056,-8.056 -10.056,-14.763 l 0,0 c 0,-8.757 7.105,-15.862 15.868,-15.862 l 0,0 c 8.763,0 15.87,7.105 15.87,15.862 l 0,0 c 0.004,6.107 -3.454,11.407 -8.522,14.062 l 0,0 c 0,0 -3.774,11.26 -3.122,22.501 l 0,0 c 0.554,9.525 4.276,20.726 4.272,20.723 l 0,0 c 9.511,3.467 16.302,12.593 16.302,23.301 l 0,0 c 0,3.514 -0.729,6.857 -2.051,9.89 l 0,0 -0.015,0.021 c 0,0 5.188,14.475 17.688,25.077 l 0,0 c 9.457,8.018 23.244,13.226 23.247,13.226 l 0,0 c 0.994,-0.195 2.017,-0.294 3.062,-0.294 l 0,0 c 8.766,0 15.871,7.109 15.871,15.87 l 0,0 c 0,8.764 -7.105,15.871 -15.871,15.871 l 0,0 c -8.761,0 -15.87,-7.107 -15.87,-15.871"
         id="path3929"
         inkscape:connector-curvature="0" />
    </clipPath>
    <linearGradient
       x1="0"
       y1="0"
       x2="1"
       y2="0"
       gradientUnits="userSpaceOnUse"
       gradientTransform="matrix(-70.985504,70.985519,70.985519,70.985519,469.8125,189.90332)"
       spreadMethod="pad"
       id="linearGradient3915">
      <stop
         style="stop-opacity:1;stop-color:#337abe"
         offset="0"
         id="stop3917" />
      <stop
         style="stop-opacity:1;stop-color:#3bade2"
         offset="1"
         id="stop3919" />
    </linearGradient>
    <clipPath
       clipPathUnits="userSpaceOnUse"
       id="clipPath3907">
      <path
         d="m 472.865,307.345 c 0,-1.901 0.266,-3.745 0.77,-5.49 l 0,0 0.003,-0.01 c 0,0 -4.958,-15.571 -17.105,-27.71 l 0,0 C 442.513,260.127 422.264,255.17 422.264,255.17 l 0,0 -0.138,0.032 c -1.614,0.333 -3.286,0.503 -4.998,0.503 l 0,0 c -13.689,0 -24.792,-11.1 -24.792,-24.791 l 0,0 c -0.002,-3.612 0.77,-7.041 2.157,-10.133 l 0,0 c 0.1,-0.301 2.204,-6.831 -2.329,-10.645 l 0,0 c -4.629,-3.898 -11.677,-1.203 -11.68,-1.199 l 0,0 c -4.653,2.218 -9.857,3.461 -15.356,3.461 l 0,0 c -19.721,0 -35.709,-15.987 -35.709,-35.703 l 0,0 c 0,-19.715 15.988,-35.702 35.709,-35.702 l 0,0 c 19.716,0 35.709,15.987 35.709,35.702 l 0,0 c 0.002,6.11 -1.535,11.862 -4.243,16.886 l 0,0 c 0,0 -3.299,6.354 -0.166,10.179 l 0,0 c 4,4.88 12.571,3.78 12.571,3.78 l 0,0 0.004,-0.058 c 2.547,-0.883 5.277,-1.363 8.125,-1.363 l 0,0 c 5.084,0 9.807,1.524 13.741,4.145 l 0,0 -2.258,-1.331 c 0,0 5.244,4.052 7.988,0.943 l 0,0 c 2.777,-3.151 2.13,-9.768 2.011,-10.789 l 0,0 c -0.101,-0.726 -0.153,-1.468 -0.153,-2.224 l 0,0 c 0,-8.761 7.104,-15.871 15.875,-15.871 l 0,0 c 8.761,0 15.866,7.11 15.866,15.871 l 0,0 c 0,8.766 -7.105,15.866 -15.866,15.866 l 0,0 c -1.166,0 -2.3,-0.124 -3.396,-0.363 l 0,0 c -1.219,-0.219 -8.526,-1.394 -11.577,1.254 l 0,0 c -2.829,2.462 0.418,7.172 0.418,7.172 l 0,0 -1.084,-2.14 c 2.06,3.617 3.238,7.802 3.238,12.262 l 0,0 c 0,1.129 -0.077,2.241 -0.223,3.329 l 0,0 c -0.004,-0.004 5.32,22.772 19.106,36.55 l 0,0 c 15.999,15.986 24.261,18.241 24.261,18.241 l 0,0 -0.005,-0.002 c 2.349,-0.98 4.93,-1.521 7.635,-1.521 l 0,0 c 10.955,0 19.832,8.884 19.832,19.834 l 0,0 c 0,10.96 -8.877,19.836 -19.832,19.836 l 0,0 c -10.959,0 -19.84,-8.876 -19.84,-19.836"
         id="path3909"
         inkscape:connector-curvature="0" />
    </clipPath>
    <linearGradient
       inkscape:collect="always"
       xlink:href="#linearGradient3915"
       id="linearGradient3108"
       gradientUnits="userSpaceOnUse"
       gradientTransform="matrix(-70.985504,70.985519,70.985519,70.985519,469.8125,189.90332)"
       spreadMethod="pad"
       x1="0"
       y1="0"
       x2="1"
       y2="0" />
    <linearGradient
       inkscape:collect="always"
       xlink:href="#linearGradient3935"
       id="linearGradient3110"
       gradientUnits="userSpaceOnUse"
       gradientTransform="matrix(-133.60844,-115.5714,-115.5714,133.60844,452.78516,414.26855)"
       spreadMethod="pad"
       x1="0"
       y1="0"
       x2="1"
       y2="0" />
    <linearGradient
       inkscape:collect="always"
       xlink:href="#linearGradient3955"
       id="linearGradient3112"
       gradientUnits="userSpaceOnUse"
       gradientTransform="matrix(168.98854,168.98854,168.98854,-168.98854,349.09961,209.33105)"
       spreadMethod="pad"
       x1="0"
       y1="0"
       x2="1"
       y2="0" />
  </defs>
  <sodipodi:namedview
     id="base"
     pagecolor="#ffffff"
     bordercolor="#666666"
     borderopacity="1.0"
     inkscape:pageopacity="0.0"
     inkscape:pageshadow="2"
     inkscape:zoom="1.4"
     inkscape:cx="204.6974"
     inkscape:cy="-99.350668"
     inkscape:document-units="px"
     inkscape:current-layer="layer1"
     showgrid="false"
     inkscape:window-width="1920"
     inkscape:window-height="1024"
     inkscape:window-x="0"
     inkscape:window-y="27"
     inkscape:window-maximized="1" />
  <metadata
     id="metadata7">
    <rdf:RDF>
      <cc:Work
         rdf:about="">
        <dc:format>image/svg+xml</dc:format>
        <dc:type
           rdf:resource="http://purl.org/dc/dcmitype/StillImage" />
        <dc:title></dc:title>
      </cc:Work>
    </rdf:RDF>
  </metadata>
  <g
     inkscape:label="Layer 1"
     inkscape:groupmode="layer"
     id="layer1"
     transform="translate(0,-1021.3622)">
    <g
       transform="matrix(0.13119004,0,0,-0.13119004,-36.698066,1075.6429)"
       inkscape:label="icona_confine"
       id="g3901">
      <g
         id="g3903">
        <g
           clip-path="url(#clipPath3907)"
           id="g3905">
          <g
             id="g3911">
            <g
               id="g3913">
              <path
                 id="path3921"
                 style="fill:url(#linearGradient3108);stroke:none"
                 d="m 472.865,307.345 c 0,-1.901 0.266,-3.745 0.77,-5.49 l 0,0 0.003,-0.01 c 0,0 -4.958,-15.571 -17.105,-27.71 l 0,0 C 442.513,260.127 422.264,255.17 422.264,255.17 l 0,0 -0.138,0.032 c -1.614,0.333 -3.286,0.503 -4.998,0.503 l 0,0 c -13.689,0 -24.792,-11.1 -24.792,-24.791 l 0,0 c -0.002,-3.612 0.77,-7.041 2.157,-10.133 l 0,0 c 0.1,-0.301 2.204,-6.831 -2.329,-10.645 l 0,0 c -4.629,-3.898 -11.677,-1.203 -11.68,-1.199 l 0,0 c -4.653,2.218 -9.857,3.461 -15.356,3.461 l 0,0 c -19.721,0 -35.709,-15.987 -35.709,-35.703 l 0,0 c 0,-19.715 15.988,-35.702 35.709,-35.702 l 0,0 c 19.716,0 35.709,15.987 35.709,35.702 l 0,0 c 0.002,6.11 -1.535,11.862 -4.243,16.886 l 0,0 c 0,0 -3.299,6.354 -0.166,10.179 l 0,0 c 4,4.88 12.571,3.78 12.571,3.78 l 0,0 0.004,-0.058 c 2.547,-0.883 5.277,-1.363 8.125,-1.363 l 0,0 c 5.084,0 9.807,1.524 13.741,4.145 l 0,0 -2.258,-1.331 c 0,0 5.244,4.052 7.988,0.943 l 0,0 c 2.777,-3.151 2.13,-9.768 2.011,-10.789 l 0,0 c -0.101,-0.726 -0.153,-1.468 -0.153,-2.224 l 0,0 c 0,-8.761 7.104,-15.871 15.875,-15.871 l 0,0 c 8.761,0 15.866,7.11 15.866,15.871 l 0,0 c 0,8.766 -7.105,15.866 -15.866,15.866 l 0,0 c -1.166,0 -2.3,-0.124 -3.396,-0.363 l 0,0 c -1.219,-0.219 -8.526,-1.394 -11.577,1.254 l 0,0 c -2.829,2.462 0.418,7.172 0.418,7.172 l 0,0 -1.084,-2.14 c 2.06,3.617 3.238,7.802 3.238,12.262 l 0,0 c 0,1.129 -0.077,2.241 -0.223,3.329 l 0,0 c -0.004,-0.004 5.32,22.772 19.106,36.55 l 0,0 c 15.999,15.986 24.261,18.241 24.261,18.241 l 0,0 -0.005,-0.002 c 2.349,-0.98 4.93,-1.521 7.635,-1.521 l 0,0 c 10.955,0 19.832,8.884 19.832,19.834 l 0,0 c 0,10.96 -8.877,19.836 -19.832,19.836 l 0,0 c -10.959,0 -19.84,-8.876 -19.84,-19.836"
                 inkscape:connector-curvature="0" />
            </g>
          </g>
        </g>
      </g>
      <g
         id="g3923">
        <g
           clip-path="url(#clipPath3927)"
           id="g3925">
          <g
             id="g3931">
            <g
               id="g3933">
              <path
                 id="path3941"
                 style="fill:url(#linearGradient3110);stroke:none"
                 d="m 421.468,407.869 c 0,-1.506 0.211,-2.964 0.606,-4.344 l 0,0 0.111,0.351 c 0,0 -4.257,-15.118 -14.038,-22.973 l 0,0 c -10.835,-8.695 -23.869,-16.298 -23.869,-16.298 l 0,0 0.069,0.116 c -3.936,2.622 -8.658,4.153 -13.741,4.153 l 0,0 c -4.117,0 -8.002,-1.004 -11.421,-2.781 l 0,0 c 0,0 -8.407,-0.714 -12.334,2.781 l 0,0 c -4.14,3.684 -4.454,14.548 -4.454,15.873 l 0,0 c 0,8.761 -7.105,15.866 -15.869,15.866 l 0,0 c -8.765,0 -15.87,-7.105 -15.87,-15.866 l 0,0 c 0,-8.766 7.105,-15.873 15.87,-15.873 l 0,0 c 0.706,0 1.399,0.045 2.075,0.136 l 0,0 c 0,0 12.983,0.717 17.207,-2.826 l 0,0 c 4.275,-3.588 2.293,-11.636 2.293,-11.636 l 0,0 0.011,-0.007 c -1.48,-3.181 -2.304,-6.727 -2.304,-10.462 l 0,0 c 0,-11.327 7.596,-20.88 17.971,-23.847 l 0,0 -0.011,0.069 c 0,0 5.364,-8.712 5.836,-21.247 l 0,0 c 0.393,-10.51 -4.814,-20.803 -4.811,-20.799 l 0,0 c -5.893,-2.32 -10.056,-8.056 -10.056,-14.763 l 0,0 c 0,-8.757 7.105,-15.862 15.868,-15.862 l 0,0 c 8.763,0 15.87,7.105 15.87,15.862 l 0,0 c 0.004,6.107 -3.454,11.407 -8.522,14.062 l 0,0 c 0,0 -3.774,11.26 -3.122,22.501 l 0,0 c 0.554,9.525 4.276,20.726 4.272,20.723 l 0,0 c 9.511,3.467 16.302,12.593 16.302,23.301 l 0,0 c 0,3.514 -0.729,6.857 -2.051,9.89 l 0,0 -0.015,0.021 c 0,0 5.188,14.475 17.688,25.077 l 0,0 c 9.457,8.018 23.244,13.226 23.247,13.226 l 0,0 c 0.994,-0.195 2.017,-0.294 3.062,-0.294 l 0,0 c 8.766,0 15.871,7.109 15.871,15.87 l 0,0 c 0,8.764 -7.105,15.871 -15.871,15.871 l 0,0 c -8.761,0 -15.87,-7.107 -15.87,-15.871"
                 inkscape:connector-curvature="0" />
            </g>
          </g>
        </g>
      </g>
      <g
         id="g3943">
        <g
           clip-path="url(#clipPath3947)"
           id="g3945">
          <g
             id="g3951">
            <g
               id="g3953">
              <path
                 id="path3961"
                 style="fill:url(#linearGradient3112);stroke:none"
                 d="m 469.867,371.425 c -0.25,-1.418 -0.383,-2.876 -0.383,-4.364 l 0,0 c 0,0 2.021,-16.608 -7.708,-24.797 l 0,0 c -9.711,-8.172 -29.435,-6.144 -29.435,-6.144 l 0,0 c -9.789,0 -18.517,-4.542 -24.197,-11.628 l 0,0 c 0.003,-0.002 -29.189,-14.312 -51.272,-14.312 l 0,0 c -25.496,0 -45.945,5.249 -45.944,5.249 l 0,0 c -3.911,8.549 -12.541,14.489 -22.556,14.489 l 0,0 c -13.695,0 -24.797,-11.1 -24.797,-24.793 l 0,0 c 0,-13.697 11.102,-24.792 24.797,-24.792 l 0,0 c 9.968,0 18.563,5.876 22.501,14.359 l 0,0 c 0,0 20.929,8.126 45.999,8.126 l 0,0 c 28.682,0 49.379,-14.876 49.96,-15.298 l 0,0 c 5.591,-8.087 14.931,-13.385 25.509,-13.385 l 0,0 c 0.701,0 1.401,0.023 2.09,0.069 l 0,0 0.735,0.068 c 0,0 19.647,0.878 28.172,-8.778 l 0,0 c 9.359,-10.604 6.971,-33.929 6.971,-33.929 l 0,0 c -0.077,-0.967 -0.116,-1.946 -0.116,-2.928 l 0,0 c 0,-20.544 16.654,-37.193 37.195,-37.193 l 0,0 c 20.543,0 37.196,16.649 37.196,37.193 l 0,0 c 0,20.535 -16.653,37.18 -37.196,37.18 l 0,0 c -4.765,0 -9.32,-0.895 -13.509,-2.527 l 0,0 c -6.852,0 -20.735,1.785 -26.055,6.408 l 0,0 c -8.796,7.646 -6.103,25.549 -6.103,25.549 l 0,0 0.003,-0.004 c 1.046,3.105 1.614,6.426 1.614,9.882 l 0,0 c 0,2.334 -0.256,4.605 -0.744,6.79 l 0,0 c -0.518,2.746 -3.119,18.313 2.864,25.609 l 0,0 c 8.387,10.23 21.583,5.695 28.826,4.74 l 0,0 c 13.573,-1.79 24.79,11.103 24.79,24.797 l 0,0 c 0,13.695 -11.097,24.795 -24.79,24.795 l 0,0 c -12.207,0 -22.353,-8.817 -24.417,-20.431 m -7.191,-59.927 0,-10e-4 c 0,0 0,0 0,10e-4"
                 inkscape:connector-curvature="0" />
            </g>
          </g>
        </g>
      </g>
    </g>
    <text
       xml:space="preserve"
       style="font-size:17.86894798px;font-style:normal;font-weight:bold;line-height:125%;letter-spacing:0px;word-spacing:0px;fill:#ffffff;fill-opacity:1;stroke:none;font-family:Sans;-inkscape-font-specification:Sans Bold"
       x="40.303661"
       y="1042.7031"
       id="text3114"
       sodipodi:linespacing="125%"><tspan
         sodipodi:role="line"
         x="40.303661"
         y="1042.7031"
         id="tspan3944">Virtual Confine Testbed Management</tspan></text>
  </g>
</svg>
